<?xml version="1.0" encoding="iso-8859-1"?>
<!-- Generator: Adobe Illustrator 18.0.0, SVG Export Plug-In . SVG Version: 6.00 Build 0)  -->
<!DOCTYPE svg PUBLIC "-//W3C//DTD SVG 1.1//EN" "http://www.w3.org/Graphics/SVG/1.1/DTD/svg11.dtd">
<svg version="1.1" id="Capa_1" xmlns="http://www.w3.org/2000/svg" xmlns:xlink="http://www.w3.org/1999/xlink" x="0px" y="0px"
	 viewBox="0 0 429.054 429.054" style="enable-background:new 0 0 429.054 429.054;" xml:space="preserve">
<g>
	<path d="M214.691,94.943c-79.339,0-143.886,64.547-143.886,143.886s64.547,143.886,143.886,143.886s143.886-64.547,143.886-143.886
		S294.03,94.943,214.691,94.943z M214.691,367.715c-71.067,0-128.886-57.818-128.886-128.886s57.818-128.886,128.886-128.886
		s128.886,57.818,128.886,128.886S285.759,367.715,214.691,367.715z"/>
	<path d="M397.083,138.679l5.304-5.303c14.756-14.757,22.883-34.377,22.883-55.246c0-18.35-6.288-35.731-17.836-49.692l7.264-7.264
		c2.929-2.93,2.929-7.678,0-10.607c-2.93-2.928-7.678-2.928-10.607,0l-7.265,7.265C382.864,6.286,365.486,0,347.14,0
		c-20.868,0-40.488,8.127-55.246,22.884l-5.303,5.304l49.941,49.94l-10.506,10.501c-29.25-21.738-65.041-35.137-103.832-36.675
		v-7.747h20.071V27.684c0-15.204-12.369-27.573-27.573-27.573c-15.203,0-27.572,12.369-27.572,27.573v16.522h20.074v7.747
		c-38.875,1.541-74.739,14.993-104.025,36.814L92.522,78.128l49.94-49.94l-5.303-5.303C122.403,8.127,102.783,0,81.914,0
		C63.567,0,46.189,6.286,32.229,17.832l-7.265-7.265c-2.93-2.928-7.678-2.928-10.607,0c-2.929,2.93-2.929,7.678,0,10.607
		l7.265,7.265C10.072,42.4,3.784,59.78,3.784,78.13c0,20.869,8.127,40.489,22.885,55.246l5.303,5.303l49.944-49.944l9.532,9.526
		c-39.081,34.306-63.796,84.602-63.796,140.568c0,61.023,29.379,115.309,74.73,149.471L82.06,421.165l12.758,7.889l19.915-32.205
		c28.933,18.367,63.224,29.02,99.959,29.02c36.735,0,71.026-10.652,99.959-29.02l19.916,32.205l12.758-7.889L327.001,388.3
		c45.352-34.162,74.731-88.448,74.731-149.471c0-56.05-24.788-106.413-63.97-140.723l9.377-9.372L397.083,138.679z M202.119,27.684
		c0-6.933,5.64-12.573,12.572-12.573s12.573,5.641,12.573,12.573v1.522h-25.146V27.684z M18.784,78.13
		c0-16.862,6.567-32.716,18.491-44.639C49.198,21.567,65.052,15,81.914,15c14.337,0,27.943,4.747,39.026,13.497l-88.659,88.659
		C23.531,106.073,18.784,92.467,18.784,78.13z M386.731,238.829c0,94.862-77.177,172.039-172.04,172.039
		c-94.862,0-172.039-77.177-172.039-172.039S119.829,66.79,214.691,66.79C309.555,66.79,386.731,143.967,386.731,238.829z
		 M347.14,15c16.863,0,32.716,6.567,44.64,18.491c22.82,22.82,24.484,58.907,4.99,83.661l-88.656-88.655
		C319.196,19.747,332.804,15,347.14,15z"/>
	<path d="M273.263,169.653l-47.021,47.02c-1.289-0.675-2.641-1.244-4.048-1.688v-66.478h-15v66.477
		c-10.13,3.193-17.497,12.674-17.497,23.845c0,13.782,11.213,24.995,24.995,24.995c13.783,0,24.996-11.213,24.996-24.995
		c0-4.165-1.029-8.091-2.839-11.548l47.021-47.02L273.263,169.653z M214.691,248.824c-5.512,0-9.995-4.483-9.995-9.995
		s4.483-9.995,9.995-9.995s9.996,4.483,9.996,9.995S220.203,248.824,214.691,248.824z"/>
</g>
<g>
</g>
<g>
</g>
<g>
</g>
<g>
</g>
<g>
</g>
<g>
</g>
<g>
</g>
<g>
</g>
<g>
</g>
<g>
</g>
<g>
</g>
<g>
</g>
<g>
</g>
<g>
</g>
<g>
</g>
</svg>
